<svg width="934" height="928" viewBox="0 0 934 928" fill="none" xmlns="http://www.w3.org/2000/svg">
<path d="M909.421 465.185C909.421 709.527 711.342 907.606 467 907.606C222.658 907.606 24.5789 709.527 24.5789 465.185C24.5789 220.842 222.658 22.7637 467 22.7637C711.342 22.7637 909.421 220.842 909.421 465.185ZM290.032 465.185C290.032 562.922 369.263 642.153 467 642.153C564.737 642.153 643.968 562.922 643.968 465.185C643.968 367.448 564.737 288.216 467 288.216C369.263 288.216 290.032 367.448 290.032 465.185Z" fill="#f639044d"/>
<path d="M767.819 126.285C796.609 151.311 822.135 179.86 843.796 211.26L615.465 368.776C607.017 356.53 597.061 345.395 585.833 335.635L767.819 126.285Z" fill="#09b6f54d"/>
</svg>
